<svg width="22" height="20" viewBox="0 0 22 20" fill="white" xmlns="http://www.w3.org/2000/svg">
								<path fill-rule="evenodd" clip-rule="evenodd" d="M11.59 2.14394C10.5292 1.67541 9.37593 1.45363 8.21701 1.49531C7.05808 1.53699 5.9237 1.84103 4.89928 2.38456C3.87486 2.92808 2.98709 3.69692 2.30281 4.63319C1.61852 5.56947 1.15555 6.64878 0.948751 7.78987C0.741951 8.93096 0.796711 10.1041 1.10891 11.221C1.4211 12.3378 1.9826 13.3693 2.75113 14.2378C3.11713 14.6514 3.74912 14.6899 4.16271 14.3239C4.57631 13.9579 4.61489 13.326 4.24888 12.9124C3.68084 12.2705 3.26582 11.5081 3.03507 10.6825C2.80432 9.85703 2.76384 8.98993 2.91669 8.14652C3.06955 7.3031 3.41174 6.50535 3.91752 5.81332C4.42329 5.12129 5.07947 4.55302 5.83665 4.15129C6.59383 3.74955 7.43228 3.52482 8.28888 3.49402C9.14548 3.46321 9.99791 3.62714 10.782 3.97344C11.5661 4.31975 12.2614 4.83942 12.8156 5.49333C13.3697 6.14724 13.7683 6.91835 13.9814 7.74861C14.0949 8.19084 14.4934 8.50007 14.95 8.50007H16L16.0008 8.50007C16.6739 8.49954 17.3297 8.71352 17.873 9.11096C18.4162 9.50839 18.8187 10.0686 19.022 10.7103C19.2253 11.352 19.2189 12.0418 19.0036 12.6795C18.7883 13.3173 18.3754 13.8699 17.8248 14.2571C17.373 14.5748 17.2643 15.1985 17.582 15.6503C17.8997 16.1021 18.5235 16.2108 18.9752 15.8931C19.8736 15.2613 20.5473 14.3598 20.8986 13.3192C21.2498 12.2786 21.2603 11.1532 20.9286 10.1062C20.5969 9.05925 19.9402 8.14523 19.0538 7.49678C18.1677 6.84849 17.098 6.49937 16 6.50007H15.9999L15.9992 6.50007L15.6841 6.50007C15.3748 5.6629 14.9209 4.8842 14.3413 4.20027C13.5916 3.31556 12.6509 2.61248 11.59 2.14394ZM11 9C11.5523 9 12 9.44772 12 10V15.0859L13.6262 13.4596C14.0168 13.0691 14.6499 13.0691 15.0405 13.4596C15.431 13.8502 15.431 14.4833 15.0405 14.8739L11.7071 18.2072C11.6667 18.2477 11.6231 18.2843 11.577 18.3169C11.4421 18.4123 11.2826 18.4752 11.1098 18.494C11.0735 18.498 11.0369 18.5001 11 18.5001C10.9642 18.5001 10.9286 18.4982 10.8933 18.4944C10.7087 18.4748 10.5392 18.405 10.3985 18.299C10.3614 18.271 10.3261 18.2404 10.2929 18.2072L6.95958 14.8739C6.56906 14.4833 6.56906 13.8502 6.95958 13.4596C7.3501 13.0691 7.98327 13.0691 8.37379 13.4596L10 15.0858V10C10 9.44772 10.4477 9 11 9Z"></path>
							</svg>