<svg width="20" height="20" viewBox="0 0 20 20" fill="none" xmlns="http://www.w3.org/2000/svg">
					<path d="M4.1665 9C3.61422 9 3.1665 9.44772 3.1665 10C3.1665 10.5523 3.61422 11 4.1665 11H13.4189L9.29274 15.1261C8.90222 15.5167 8.90222 16.1498 9.29274 16.5404C9.68326 16.9309 10.3164 16.9309 10.707 16.5404L16.5331 10.7142C16.5591 10.6888 16.5837 10.6619 16.6068 10.6337C16.663 10.5653 16.7087 10.4912 16.744 10.4135C16.7968 10.2972 16.8281 10.169 16.8326 10.0341C16.8336 10.0061 16.8333 9.97817 16.832 9.95024C16.827 9.84977 16.8073 9.75319 16.7748 9.66265C16.7266 9.52764 16.6484 9.40093 16.5403 9.29281L10.707 3.45948C10.3164 3.06895 9.68326 3.06895 9.29274 3.45948C8.90222 3.85 8.90222 4.48317 9.29274 4.87369L13.419 9H4.1665Z" fill="#1BC47D"></path>
				</svg>