<svg width="20" height="20" viewBox="0 0 20 20" fill="#333" xmlns="http://www.w3.org/2000/svg">
						<path fill-rule="evenodd" clip-rule="evenodd" d="M5.41667 1.5C3.25355 1.5 1.5 3.25355 1.5 5.41667C1.5 7.57978 3.25355 9.33333 5.41667 9.33333C7.57978 9.33333 9.33333 7.57978 9.33333 5.41667C9.33333 3.25355 7.57978 1.5 5.41667 1.5ZM3.5 5.41667C3.5 4.35812 4.35812 3.5 5.41667 3.5C6.47521 3.5 7.33333 4.35812 7.33333 5.41667C7.33333 6.47521 6.47521 7.33333 5.41667 7.33333C4.35812 7.33333 3.5 6.47521 3.5 5.41667Z"></path>
						<path fill-rule="evenodd" clip-rule="evenodd" d="M14.5834 1.5C12.4202 1.5 10.6667 3.25355 10.6667 5.41667C10.6667 7.57978 12.4202 9.33333 14.5834 9.33333C16.7465 9.33333 18.5 7.57978 18.5 5.41667C18.5 3.25355 16.7465 1.5 14.5834 1.5ZM12.6667 5.41667C12.6667 4.35812 13.5248 3.5 14.5834 3.5C15.6419 3.5 16.5 4.35812 16.5 5.41667C16.5 6.47521 15.6419 7.33333 14.5834 7.33333C13.5248 7.33333 12.6667 6.47521 12.6667 5.41667Z"></path>
						<path fill-rule="evenodd" clip-rule="evenodd" d="M10.6667 14.5834C10.6667 12.4203 12.4202 10.6667 14.5834 10.6667C16.7465 10.6667 18.5 12.4203 18.5 14.5834C18.5 16.7465 16.7465 18.5001 14.5834 18.5001C12.4202 18.5001 10.6667 16.7465 10.6667 14.5834ZM14.5834 12.6667C13.5248 12.6667 12.6667 13.5249 12.6667 14.5834C12.6667 15.642 13.5248 16.5001 14.5834 16.5001C15.6419 16.5001 16.5 15.642 16.5 14.5834C16.5 13.5249 15.6419 12.6667 14.5834 12.6667Z"></path>
						<path fill-rule="evenodd" clip-rule="evenodd" d="M5.41667 10.6667C3.25355 10.6667 1.5 12.4203 1.5 14.5834C1.5 16.7465 3.25355 18.5001 5.41667 18.5001C7.57978 18.5001 9.33333 16.7465 9.33333 14.5834C9.33333 12.4203 7.57978 10.6667 5.41667 10.6667ZM3.5 14.5834C3.5 13.5249 4.35812 12.6667 5.41667 12.6667C6.47521 12.6667 7.33333 13.5249 7.33333 14.5834C7.33333 15.642 6.47521 16.5001 5.41667 16.5001C4.35812 16.5001 3.5 15.642 3.5 14.5834Z"></path>
						</svg>