<svg width="24" height="24" viewBox="0 0 24 24" fill="none" xmlns="http://www.w3.org/2000/svg">
					<path d="M6.65468 1.25336C7.58283 1.36853 8.50374 1.66758 9.36466 2.16463C12.8084 4.15285 13.9883 8.55631 12 12C10.0118 8.55631 5.60836 7.3764 2.16466 9.36463C1.30498 9.86096 0.586387 10.5078 0.022934 11.2527C0.292562 6.86468 2.9203 3.11442 6.65468 1.25336Z" fill="#FFD600"></path>
					<path d="M0.0228934 11.2526C0.586346 10.5078 1.30494 9.86095 2.16462 9.36462C5.60832 7.37639 10.0118 8.55629 12 12C8.02355 12 4.8 15.2235 4.8 19.2C4.8 20.1932 5.00112 21.1395 5.36485 22.0003C2.13121 19.8505 0 16.1741 0 12C0 11.749 0.00770568 11.4998 0.0228934 11.2526Z" fill="#1BC47D"></path>
					<path d="M5.36487 22.0003C5.00114 21.1395 4.80002 20.1932 4.80002 19.2C4.80002 15.2235 8.02357 12 12 12C10.0118 15.4437 11.1917 19.8472 14.6354 21.8354C15.4963 22.3324 16.4172 22.6315 17.3454 22.7467C15.7358 23.5488 13.9206 24 12 24C9.54673 24 7.26539 23.2638 5.36487 22.0003Z" fill="#18A0FB"></path>
					<path d="M17.3453 22.7467C16.4172 22.6315 15.4963 22.3324 14.6354 21.8354C11.1917 19.8472 10.0118 15.4437 12 12C13.9882 15.4437 18.3917 16.6236 21.8354 14.6354C22.695 14.1391 23.4136 13.4922 23.9771 12.7474C23.7075 17.1353 21.0797 20.8856 17.3453 22.7467Z" fill="#7B61FF"></path>
					<path d="M23.9771 12.7473C23.4137 13.4922 22.6951 14.139 21.8354 14.6354C18.3917 16.6236 13.9882 15.4437 12 12C15.9765 12 19.2 8.77644 19.2 4.79999C19.2 3.80675 18.9989 2.86048 18.6351 1.99969C21.8688 4.1495 24 7.82586 24 12C24 12.251 23.9923 12.5002 23.9771 12.7473Z" fill="#F24822"></path>
					<path d="M18.635 1.99971C18.9988 2.8605 19.1999 3.80676 19.1999 4.8C19.1999 8.77645 15.9764 12 11.9999 12C13.9881 8.55629 12.8082 4.15284 9.36452 2.16462C8.5036 1.66756 7.58269 1.36852 6.65454 1.25334C8.26414 0.451185 10.0793 0 11.9999 0C14.4532 0 16.7345 0.736191 18.635 1.99971Z" fill="#F97F0F"></path>
					</svg>